<svg xmlns="http://www.w3.org/2000/svg" width="620" height="204" viewBox="0 0 620 204"><rect width="620" height="204" rx="10" fill="#0d1117" stroke="#30363d"/><text x="24" y="30" font-family="ui-monospace, 'JetBrains Mono', 'Fira Code', Consolas, monospace" font-size="11" font-weight="700" fill="#8b949e" text-anchor="start" letter-spacing="0.08em">by bytes</text><text x="322.0" y="30" font-family="ui-monospace, 'JetBrains Mono', 'Fira Code', Consolas, monospace" font-size="11" font-weight="700" fill="#8b949e" text-anchor="start" letter-spacing="0.08em">by repo count</text><rect x="24" y="43" width="250.0" height="6" rx="3" fill="#30363d"/><rect x="24" y="43" width="63.6" height="6" rx="3" fill="#DA5B0B"/><text x="24" y="62" font-family="ui-monospace, 'JetBrains Mono', 'Fira Code', Consolas, monospace" font-size="11" font-weight="400" fill="#c9d1d9" text-anchor="start">Jupyter Notebook - 25%</text><rect x="24" y="67" width="250.0" height="6" rx="3" fill="#30363d"/><rect x="24" y="67" width="60.5" height="6" rx="3" fill="#00B4AB"/><text x="24" y="86" font-family="ui-monospace, 'JetBrains Mono', 'Fira Code', Consolas, monospace" font-size="11" font-weight="400" fill="#c9d1d9" text-anchor="start">Dart - 24%</text><rect x="24" y="91" width="250.0" height="6" rx="3" fill="#30363d"/><rect x="24" y="91" width="33.0" height="6" rx="3" fill="#b07219"/><text x="24" y="110" font-family="ui-monospace, 'JetBrains Mono', 'Fira Code', Consolas, monospace" font-size="11" font-weight="400" fill="#c9d1d9" text-anchor="start">Java - 13%</text><rect x="24" y="115" width="250.0" height="6" rx="3" fill="#30363d"/><rect x="24" y="115" width="31.4" height="6" rx="3" fill="#3572A5"/><text x="24" y="134" font-family="ui-monospace, 'JetBrains Mono', 'Fira Code', Consolas, monospace" font-size="11" font-weight="400" fill="#c9d1d9" text-anchor="start">Python - 13%</text><rect x="24" y="139" width="250.0" height="6" rx="3" fill="#30363d"/><rect x="24" y="139" width="31.1" height="6" rx="3" fill="#e34c26"/><text x="24" y="158" font-family="ui-monospace, 'JetBrains Mono', 'Fira Code', Consolas, monospace" font-size="11" font-weight="400" fill="#c9d1d9" text-anchor="start">HTML - 12%</text><rect x="24" y="163" width="250.0" height="6" rx="3" fill="#30363d"/><rect x="24" y="163" width="29.2" height="6" rx="3" fill="#f34b7d"/><text x="24" y="182" font-family="ui-monospace, 'JetBrains Mono', 'Fira Code', Consolas, monospace" font-size="11" font-weight="400" fill="#c9d1d9" text-anchor="start">C++ - 12%</text><circle cx="326.0" cy="58" r="4" fill="#3572A5"/><text x="336.0" y="62" font-family="ui-monospace, 'JetBrains Mono', 'Fira Code', Consolas, monospace" font-size="11" font-weight="400" fill="#c9d1d9" text-anchor="start">Python - 4 repos</text><circle cx="326.0" cy="82" r="4" fill="#427819"/><text x="336.0" y="86" font-family="ui-monospace, 'JetBrains Mono', 'Fira Code', Consolas, monospace" font-size="11" font-weight="400" fill="#c9d1d9" text-anchor="start">Makefile - 2 repos</text><circle cx="326.0" cy="106" r="4" fill="#f34b7d"/><text x="336.0" y="110" font-family="ui-monospace, 'JetBrains Mono', 'Fira Code', Consolas, monospace" font-size="11" font-weight="400" fill="#c9d1d9" text-anchor="start">C++ - 2 repos</text><circle cx="326.0" cy="130" r="4" fill="#DA5B0B"/><text x="336.0" y="134" font-family="ui-monospace, 'JetBrains Mono', 'Fira Code', Consolas, monospace" font-size="11" font-weight="400" fill="#c9d1d9" text-anchor="start">Jupyter Notebook - 2 repos</text><circle cx="326.0" cy="154" r="4" fill="#b07219"/><text x="336.0" y="158" font-family="ui-monospace, 'JetBrains Mono', 'Fira Code', Consolas, monospace" font-size="11" font-weight="400" fill="#c9d1d9" text-anchor="start">Java - 2 repos</text><circle cx="326.0" cy="178" r="4" fill="#e34c26"/><text x="336.0" y="182" font-family="ui-monospace, 'JetBrains Mono', 'Fira Code', Consolas, monospace" font-size="11" font-weight="400" fill="#c9d1d9" text-anchor="start">HTML - 1 repo</text></svg>